<svg id="Capa_2" xmlns="http://www.w3.org/2000/svg" viewBox="0 0 953.01 568"><g id="Capa_3"><path d="m442.92,309.26c-23.33,23.91-46.38,48.22-70.33,71.41-5.05-2.59-10.1-5.09-15.15-7.6-48.39-23.86-99.6-45.31-153.49-47.1-61.71-2.06-144.42,18.45-161.09,87.31-4.16,17.2-3.26,35.44,2.01,52.28,4.51,14.48,12.24,27.93,22.79,38.83-6.26-3.35-12.15-7.24-17.65-11.53C-.67,453.24-16.8,376.92,20.16,321.6c18.1-27.03,46.07-46.16,75.88-59.12,40.44-17.61,84.95-24.67,129.14-22.88-14.61-15.19-23.59-35.88-23.59-58.63,0-46.87,38.03-84.9,84.9-84.9s84.9,38.03,84.9,84.9c0,33.69-19.66,62.83-48.13,76.55,41.2,12.96,80.61,31.64,119.67,51.75Z" fill="#b6d6a9"/><path d="m899.38,312.53c-.54,5.45-1.12,10.86-1.83,16.13-9.16,72.57-31.99,128.56-111,154.97-74.85,25.02-158.01,12.02-230.31-14.75-22.39-8.27-44.15-17.83-65.64-28.06-9.88-4.69-19.71-9.52-29.49-14.48-19.93-10.05-39.73-20.51-59.57-30.79,24.4-22.61,47.68-46.74,70.96-70.78,19.57,10.37,39.14,20.82,58.94,30.83,9.96,5.09,20.02,10.01,30.12,14.79,34.63,16.35,70.02,30.56,107.11,39.72,43.84,10.86,91.02,14.25,133.38-1.43,28.42-10.55,55.72-28.06,74.71-51.61,10.5-13.05,18.45-27.97,22.61-44.55Z" fill="#b6d6a9"/><path d="m917.83,365.61c14.43-29.54,12.65-66.36-4.56-94.33-1.74-2.86-3.62-5.54-5.59-8.09-27.12-35.48-73.24-43.52-117.43-38.61-20.15,2.23-39.86,7.15-57.2,13.45-50.72,18.37-92.77,54.61-131.42,92.19-13.54,13.18-26.81,26.68-40.08,40.17-23.37,23.82-46.65,47.72-70.96,70.42-15.6,14.61-31.64,28.73-48.44,41.96-60.5,47.81-135.53,85.88-214.49,85.21-6.79-.04-13.27-.4-19.48-1.12-54.56-5.63-88.03-33.51-113.63-74.22-9.92-15.77-18.68-33.42-27.03-52.5,22.43,35.97,64.08,54.83,106.08,60.01,5.41.67,10.86,1.12,16.22,1.34,45.09,1.88,88.97-15.95,127.26-39.81,30.43-18.95,58.09-41.65,84.45-66.13,24.4-22.61,47.68-46.74,70.96-70.78,53.58-55.32,107.29-110.15,175.08-145.27,19.8-10.28,40.66-18.63,62.11-24.76-22.16-15.28-36.69-40.89-36.69-69.84,0-39.14,26.5-72.12,62.56-81.91,7.15-1.97,14.61-2.99,22.34-2.99,46.87,0,84.9,38.03,84.9,84.9,0,23.24-9.34,44.33-24.53,59.61,31.64,3.35,63.27,12.91,88.21,32.58,57.96,45.62,61.8,135.98,11.35,188.53Z" fill="#5193ed"/></g></svg>